<svg xmlns="http://www.w3.org/2000/svg" xmlns:xlink="http://www.w3.org/1999/xlink" width="160" zoomAndPan="magnify" viewBox="0 0 120 37.5" height="50" preserveAspectRatio="xMidYMid meet" version="1.0"><defs><g/><clipPath id="3ed10a1be9"><path d="M 0.789062 0 L 119.210938 0 L 119.210938 2 L 0.789062 2 Z M 0.789062 0 " clip-rule="nonzero"/></clipPath><clipPath id="9dcaacf920"><path d="M 118 0 L 119.210938 0 L 119.210938 35 L 118 35 Z M 118 0 " clip-rule="nonzero"/></clipPath><clipPath id="240e3eac9a"><path d="M 0.789062 0 L 2 0 L 2 35 L 0.789062 35 Z M 0.789062 0 " clip-rule="nonzero"/></clipPath><clipPath id="96c124cf7b"><path d="M 86 33 L 119.210938 33 L 119.210938 35 L 86 35 Z M 86 33 " clip-rule="nonzero"/></clipPath><clipPath id="78f24fda12"><path d="M 0.789062 33 L 34 33 L 34 35 L 0.789062 35 Z M 0.789062 33 " clip-rule="nonzero"/></clipPath><clipPath id="81289555fa"><path d="M 34.773438 33.660156 L 35.957031 33.660156 L 35.957031 34.84375 L 34.773438 34.84375 Z M 34.773438 33.660156 " clip-rule="nonzero"/></clipPath><clipPath id="e29cb0f8e3"><path d="M 35.363281 33.660156 C 35.039062 33.660156 34.773438 33.925781 34.773438 34.253906 C 34.773438 34.578125 35.039062 34.84375 35.363281 34.84375 C 35.691406 34.84375 35.957031 34.578125 35.957031 34.253906 C 35.957031 33.925781 35.691406 33.660156 35.363281 33.660156 Z M 35.363281 33.660156 " clip-rule="nonzero"/></clipPath><clipPath id="c5c18451af"><path d="M 0.773438 0.660156 L 1.957031 0.660156 L 1.957031 1.84375 L 0.773438 1.84375 Z M 0.773438 0.660156 " clip-rule="nonzero"/></clipPath><clipPath id="3eb258b514"><path d="M 1.363281 0.660156 C 1.039062 0.660156 0.773438 0.925781 0.773438 1.253906 C 0.773438 1.578125 1.039062 1.84375 1.363281 1.84375 C 1.691406 1.84375 1.957031 1.578125 1.957031 1.253906 C 1.957031 0.925781 1.691406 0.660156 1.363281 0.660156 Z M 1.363281 0.660156 " clip-rule="nonzero"/></clipPath><clipPath id="e27841e8b4"><rect x="0" width="2" y="0" height="2"/></clipPath><clipPath id="c91609f1e0"><path d="M 7 0.078125 L 9 0.078125 L 9 5 L 7 5 Z M 7 0.078125 " clip-rule="nonzero"/></clipPath><clipPath id="7c139a0ce7"><path d="M 19 0.078125 L 22 0.078125 L 22 5 L 19 5 Z M 19 0.078125 " clip-rule="nonzero"/></clipPath><clipPath id="4b8483d440"><rect x="0" width="31" y="0" height="6"/></clipPath><clipPath id="204f07afc9"><path d="M 83.820312 33.660156 L 85.003906 33.660156 L 85.003906 34.84375 L 83.820312 34.84375 Z M 83.820312 33.660156 " clip-rule="nonzero"/></clipPath><clipPath id="381f35bc2b"><path d="M 84.414062 33.660156 C 84.085938 33.660156 83.820312 33.925781 83.820312 34.253906 C 83.820312 34.578125 84.085938 34.84375 84.414062 34.84375 C 84.738281 34.84375 85.003906 34.578125 85.003906 34.253906 C 85.003906 33.925781 84.738281 33.660156 84.414062 33.660156 Z M 84.414062 33.660156 " clip-rule="nonzero"/></clipPath><clipPath id="44fd7c0604"><path d="M 0.820312 0.660156 L 2.003906 0.660156 L 2.003906 1.84375 L 0.820312 1.84375 Z M 0.820312 0.660156 " clip-rule="nonzero"/></clipPath><clipPath id="7b09b1e3b7"><path d="M 1.414062 0.660156 C 1.085938 0.660156 0.820312 0.925781 0.820312 1.253906 C 0.820312 1.578125 1.085938 1.84375 1.414062 1.84375 C 1.738281 1.84375 2.003906 1.578125 2.003906 1.253906 C 2.003906 0.925781 1.738281 0.660156 1.414062 0.660156 Z M 1.414062 0.660156 " clip-rule="nonzero"/></clipPath><clipPath id="29ef9173cd"><rect x="0" width="3" y="0" height="2"/></clipPath></defs><g clip-path="url(#3ed10a1be9)"><path stroke-linecap="butt" transform="matrix(0.740132, 0, 0, 0.740132, 0.789474, 0.743362)" fill="none" stroke-linejoin="miter" d="M -0.000555556 0.499802 L 160.000562 0.499802 " stroke="#928a6b" stroke-width="1" stroke-opacity="1" stroke-miterlimit="4"/></g><g clip-path="url(#9dcaacf920)"><path stroke-linecap="butt" transform="matrix(0, 0.740132, -0.740132, 0, 119.207464, 1.116486)" fill="none" stroke-linejoin="miter" d="M 0.000948134 0.501973 L 44.772339 0.501973 " stroke="#928a6b" stroke-width="1" stroke-opacity="1" stroke-miterlimit="4"/></g><g clip-path="url(#240e3eac9a)"><path stroke-linecap="butt" transform="matrix(0, 0.740132, -0.740132, 0, 1.526548, 1.116486)" fill="none" stroke-linejoin="miter" d="M 0.000948134 0.500313 L 44.772339 0.500313 " stroke="#928a6b" stroke-width="1" stroke-opacity="1" stroke-miterlimit="4"/></g><g clip-path="url(#96c124cf7b)"><path stroke-linecap="butt" transform="matrix(0.740132, 0, 0, 0.740132, 86.485272, 33.881929)" fill="none" stroke-linejoin="miter" d="M -0.00121224 0.502582 L 44.015456 0.502582 " stroke="#928a6b" stroke-width="1" stroke-opacity="1" stroke-miterlimit="4"/></g><g clip-path="url(#78f24fda12)"><path stroke-linecap="butt" transform="matrix(0.740132, 0, 0, 0.740132, 0.789474, 33.881929)" fill="none" stroke-linejoin="miter" d="M -0.000555556 0.502582 L 44.016113 0.502582 " stroke="#928a6b" stroke-width="1" stroke-opacity="1" stroke-miterlimit="4"/></g><path stroke-linecap="butt" transform="matrix(0.00000000129177, 0.740132, -0.740132, 0.00000000129177, 4.501812, 5.705511)" fill="none" stroke-linejoin="miter" d="M 0.0020544 0.498559 L 33.183445 0.498559 " stroke="#928a6b" stroke-width="1" stroke-opacity="1" stroke-miterlimit="4"/><path stroke-linecap="butt" transform="matrix(0.00000000129177, 0.740132, -0.740132, 0.00000000129177, 115.956017, 5.705511)" fill="none" stroke-linejoin="miter" d="M 0.0020544 0.500019 L 33.183445 0.500019 " stroke="#928a6b" stroke-width="1" stroke-opacity="1" stroke-miterlimit="4"/><path stroke-linecap="butt" transform="matrix(0.00000000129177, 0.740132, -0.740132, 0.00000000129177, 112.998049, 11.304859)" fill="none" stroke-linejoin="miter" d="M -0.000231809 0.498753 L 17.242269 0.498753 " stroke="#928a6b" stroke-width="1" stroke-opacity="1" stroke-miterlimit="4"/><path stroke-linecap="butt" transform="matrix(0.00000000129177, 0.740132, -0.740132, 0.00000000129177, 7.390333, 11.304859)" fill="none" stroke-linejoin="miter" d="M -0.000231809 0.500994 L 17.242269 0.500994 " stroke="#928a6b" stroke-width="1" stroke-opacity="1" stroke-miterlimit="4"/><g clip-path="url(#81289555fa)"><g clip-path="url(#e29cb0f8e3)"><g transform="matrix(1, 0, 0, 1, 34, 33)"><g clip-path="url(#e27841e8b4)"><g clip-path="url(#c5c18451af)"><g clip-path="url(#3eb258b514)"><path fill="#7f856f" d="M 0.773438 0.660156 L 1.957031 0.660156 L 1.957031 1.84375 L 0.773438 1.84375 Z M 0.773438 0.660156 " fill-opacity="1" fill-rule="nonzero"/></g></g></g></g></g></g><g fill="#928a6b" fill-opacity="1"><g transform="translate(16.904781, 23.86281)"><g><path d="M 7.203125 -7.640625 C 8.347656 -7.554688 9.269531 -7.175781 9.96875 -6.5 C 10.675781 -5.820312 11.03125 -4.988281 11.03125 -4 C 11.03125 -3.226562 10.835938 -2.53125 10.453125 -1.90625 C 10.078125 -1.289062 9.5625 -0.800781 8.90625 -0.4375 C 8.25 -0.0820312 7.515625 0.09375 6.703125 0.09375 C 6.222656 0.09375 5.703125 0.0664062 5.140625 0.015625 C 4.941406 0.00390625 4.703125 -0.00390625 4.421875 -0.015625 C 4.148438 -0.0351562 3.847656 -0.046875 3.515625 -0.046875 L 2.046875 -0.015625 C 1.785156 -0.00390625 1.414062 0 0.9375 0 C 0.90625 0 0.890625 -0.0390625 0.890625 -0.125 C 0.890625 -0.21875 0.90625 -0.265625 0.9375 -0.265625 C 1.46875 -0.265625 1.863281 -0.300781 2.125 -0.375 C 2.382812 -0.457031 2.566406 -0.597656 2.671875 -0.796875 C 2.773438 -1.003906 2.828125 -1.328125 2.828125 -1.765625 L 2.828125 -11.8125 C 2.828125 -12.238281 2.78125 -12.550781 2.6875 -12.75 C 2.59375 -12.957031 2.414062 -13.097656 2.15625 -13.171875 C 1.90625 -13.253906 1.515625 -13.296875 0.984375 -13.296875 C 0.929688 -13.296875 0.90625 -13.335938 0.90625 -13.421875 C 0.90625 -13.515625 0.929688 -13.5625 0.984375 -13.5625 L 2.046875 -13.546875 C 2.648438 -13.515625 3.140625 -13.5 3.515625 -13.5 C 3.773438 -13.5 4.015625 -13.503906 4.234375 -13.515625 C 4.460938 -13.535156 4.65625 -13.550781 4.8125 -13.5625 C 5.257812 -13.601562 5.679688 -13.625 6.078125 -13.625 C 7.296875 -13.625 8.207031 -13.359375 8.8125 -12.828125 C 9.414062 -12.304688 9.71875 -11.617188 9.71875 -10.765625 C 9.71875 -10.066406 9.492188 -9.445312 9.046875 -8.90625 C 8.597656 -8.363281 7.984375 -7.941406 7.203125 -7.640625 Z M 5.625 -13.296875 C 5.25 -13.296875 4.96875 -13.265625 4.78125 -13.203125 C 4.59375 -13.140625 4.453125 -13.003906 4.359375 -12.796875 C 4.273438 -12.585938 4.234375 -12.242188 4.234375 -11.765625 L 4.234375 -7.640625 L 5.203125 -7.625 C 6.265625 -7.625 7.046875 -7.894531 7.546875 -8.4375 C 8.054688 -8.976562 8.3125 -9.695312 8.3125 -10.59375 C 8.3125 -11.40625 8.085938 -12.054688 7.640625 -12.546875 C 7.203125 -13.046875 6.53125 -13.296875 5.625 -13.296875 Z M 6.375 -0.296875 C 7.4375 -0.296875 8.222656 -0.566406 8.734375 -1.109375 C 9.242188 -1.660156 9.5 -2.441406 9.5 -3.453125 C 9.5 -4.546875 9.175781 -5.429688 8.53125 -6.109375 C 7.894531 -6.796875 7.007812 -7.144531 5.875 -7.15625 C 5.414062 -7.175781 4.867188 -7.164062 4.234375 -7.125 L 4.234375 -1.765625 C 4.234375 -1.378906 4.285156 -1.085938 4.390625 -0.890625 C 4.503906 -0.691406 4.710938 -0.539062 5.015625 -0.4375 C 5.328125 -0.34375 5.78125 -0.296875 6.375 -0.296875 Z M 6.375 -0.296875 "/></g></g></g><g fill="#928a6b" fill-opacity="1"><g transform="translate(29.017094, 23.86281)"><g><path d="M 5.015625 0.28125 C 4.171875 0.28125 3.425781 0.078125 2.78125 -0.328125 C 2.144531 -0.742188 1.648438 -1.300781 1.296875 -2 C 0.953125 -2.707031 0.78125 -3.472656 0.78125 -4.296875 C 0.78125 -5.234375 1.007812 -6.03125 1.46875 -6.6875 C 1.925781 -7.351562 2.507812 -7.847656 3.21875 -8.171875 C 3.9375 -8.492188 4.664062 -8.65625 5.40625 -8.65625 C 6.257812 -8.65625 7.003906 -8.445312 7.640625 -8.03125 C 8.273438 -7.613281 8.757812 -7.0625 9.09375 -6.375 C 9.4375 -5.6875 9.609375 -4.957031 9.609375 -4.1875 C 9.609375 -3.289062 9.398438 -2.503906 8.984375 -1.828125 C 8.566406 -1.160156 8.003906 -0.640625 7.296875 -0.265625 C 6.597656 0.0976562 5.835938 0.28125 5.015625 0.28125 Z M 5.640625 -0.125 C 6.441406 -0.125 7.054688 -0.40625 7.484375 -0.96875 C 7.921875 -1.539062 8.140625 -2.410156 8.140625 -3.578125 C 8.140625 -4.472656 7.988281 -5.273438 7.6875 -5.984375 C 7.394531 -6.691406 6.988281 -7.242188 6.46875 -7.640625 C 5.945312 -8.046875 5.351562 -8.25 4.6875 -8.25 C 3.90625 -8.25 3.300781 -7.960938 2.875 -7.390625 C 2.445312 -6.828125 2.234375 -6.019531 2.234375 -4.96875 C 2.234375 -4.082031 2.378906 -3.269531 2.671875 -2.53125 C 2.960938 -1.800781 3.367188 -1.21875 3.890625 -0.78125 C 4.410156 -0.34375 4.992188 -0.125 5.640625 -0.125 Z M 5.640625 -0.125 "/></g></g></g><g fill="#928a6b" fill-opacity="1"><g transform="translate(39.414578, 23.86281)"><g><path d="M 5.015625 0.28125 C 4.171875 0.28125 3.425781 0.078125 2.78125 -0.328125 C 2.144531 -0.742188 1.648438 -1.300781 1.296875 -2 C 0.953125 -2.707031 0.78125 -3.472656 0.78125 -4.296875 C 0.78125 -5.234375 1.007812 -6.03125 1.46875 -6.6875 C 1.925781 -7.351562 2.507812 -7.847656 3.21875 -8.171875 C 3.9375 -8.492188 4.664062 -8.65625 5.40625 -8.65625 C 6.257812 -8.65625 7.003906 -8.445312 7.640625 -8.03125 C 8.273438 -7.613281 8.757812 -7.0625 9.09375 -6.375 C 9.4375 -5.6875 9.609375 -4.957031 9.609375 -4.1875 C 9.609375 -3.289062 9.398438 -2.503906 8.984375 -1.828125 C 8.566406 -1.160156 8.003906 -0.640625 7.296875 -0.265625 C 6.597656 0.0976562 5.835938 0.28125 5.015625 0.28125 Z M 5.640625 -0.125 C 6.441406 -0.125 7.054688 -0.40625 7.484375 -0.96875 C 7.921875 -1.539062 8.140625 -2.410156 8.140625 -3.578125 C 8.140625 -4.472656 7.988281 -5.273438 7.6875 -5.984375 C 7.394531 -6.691406 6.988281 -7.242188 6.46875 -7.640625 C 5.945312 -8.046875 5.351562 -8.25 4.6875 -8.25 C 3.90625 -8.25 3.300781 -7.960938 2.875 -7.390625 C 2.445312 -6.828125 2.234375 -6.019531 2.234375 -4.96875 C 2.234375 -4.082031 2.378906 -3.269531 2.671875 -2.53125 C 2.960938 -1.800781 3.367188 -1.21875 3.890625 -0.78125 C 4.410156 -0.34375 4.992188 -0.125 5.640625 -0.125 Z M 5.640625 -0.125 "/></g></g></g><g fill="#928a6b" fill-opacity="1"><g transform="translate(49.812062, 23.86281)"><g><path d="M 10.484375 -0.265625 C 10.523438 -0.265625 10.546875 -0.21875 10.546875 -0.125 C 10.546875 -0.0390625 10.523438 0 10.484375 0 C 10.148438 0 9.878906 -0.00390625 9.671875 -0.015625 L 8.5 -0.046875 L 6.9375 -0.015625 C 6.707031 -0.00390625 6.398438 0 6.015625 0 C 5.984375 0 5.96875 -0.0390625 5.96875 -0.125 C 5.96875 -0.21875 5.984375 -0.265625 6.015625 -0.265625 C 6.734375 -0.265625 7.09375 -0.398438 7.09375 -0.671875 C 7.09375 -0.804688 7.03125 -0.96875 6.90625 -1.15625 L 4.234375 -4.78125 L 3.140625 -3.921875 L 3.140625 -1.765625 C 3.140625 -1.335938 3.175781 -1.019531 3.25 -0.8125 C 3.320312 -0.601562 3.453125 -0.457031 3.640625 -0.375 C 3.828125 -0.300781 4.117188 -0.265625 4.515625 -0.265625 C 4.554688 -0.265625 4.578125 -0.21875 4.578125 -0.125 C 4.578125 -0.0390625 4.554688 0 4.515625 0 C 4.179688 0 3.914062 -0.00390625 3.71875 -0.015625 L 2.546875 -0.046875 L 1.375 -0.015625 C 1.164062 -0.00390625 0.894531 0 0.5625 0 C 0.519531 0 0.5 -0.0390625 0.5 -0.125 C 0.5 -0.21875 0.519531 -0.265625 0.5625 -0.265625 C 0.957031 -0.265625 1.25 -0.300781 1.4375 -0.375 C 1.625 -0.457031 1.753906 -0.601562 1.828125 -0.8125 C 1.898438 -1.019531 1.9375 -1.335938 1.9375 -1.765625 L 1.9375 -12.984375 C 1.9375 -13.503906 1.882812 -13.878906 1.78125 -14.109375 C 1.675781 -14.335938 1.492188 -14.453125 1.234375 -14.453125 C 1.015625 -14.453125 0.679688 -14.351562 0.234375 -14.15625 L 0.203125 -14.15625 C 0.148438 -14.15625 0.109375 -14.191406 0.078125 -14.265625 C 0.0546875 -14.335938 0.0703125 -14.378906 0.125 -14.390625 L 2.84375 -15.71875 L 2.953125 -15.734375 C 2.992188 -15.734375 3.035156 -15.710938 3.078125 -15.671875 C 3.117188 -15.640625 3.140625 -15.601562 3.140625 -15.5625 L 3.140625 -4.28125 L 6.0625 -6.625 C 6.519531 -6.976562 6.75 -7.296875 6.75 -7.578125 C 6.75 -7.929688 6.335938 -8.109375 5.515625 -8.109375 C 5.472656 -8.109375 5.453125 -8.148438 5.453125 -8.234375 C 5.453125 -8.328125 5.472656 -8.375 5.515625 -8.375 C 5.898438 -8.375 6.195312 -8.367188 6.40625 -8.359375 L 7.984375 -8.328125 L 9.4375 -8.359375 C 9.625 -8.367188 9.882812 -8.375 10.21875 -8.375 C 10.257812 -8.375 10.28125 -8.328125 10.28125 -8.234375 C 10.28125 -8.148438 10.257812 -8.109375 10.21875 -8.109375 C 9.6875 -8.109375 9.09375 -7.976562 8.4375 -7.71875 C 7.789062 -7.457031 7.140625 -7.066406 6.484375 -6.546875 L 5.234375 -5.5625 L 7.984375 -1.765625 C 8.710938 -0.765625 9.546875 -0.265625 10.484375 -0.265625 Z M 10.484375 -0.265625 "/></g></g></g><g fill="#928a6b" fill-opacity="1"><g transform="translate(60.470031, 23.86281)"><g><path d="M 8.921875 -13.796875 C 9.828125 -13.796875 10.59375 -13.726562 11.21875 -13.59375 C 11.84375 -13.46875 12.46875 -13.25 13.09375 -12.9375 C 13.1875 -12.875 13.238281 -12.820312 13.25 -12.78125 C 13.269531 -12.738281 13.296875 -12.628906 13.328125 -12.453125 L 13.59375 -9.875 C 13.59375 -9.832031 13.550781 -9.804688 13.46875 -9.796875 C 13.382812 -9.785156 13.335938 -9.804688 13.328125 -9.859375 C 12.660156 -12.273438 11.171875 -13.484375 8.859375 -13.484375 C 7.640625 -13.484375 6.566406 -13.210938 5.640625 -12.671875 C 4.710938 -12.140625 3.992188 -11.375 3.484375 -10.375 C 2.984375 -9.382812 2.734375 -8.234375 2.734375 -6.921875 C 2.734375 -5.660156 3.007812 -4.503906 3.5625 -3.453125 C 4.125 -2.410156 4.878906 -1.582031 5.828125 -0.96875 C 6.773438 -0.363281 7.804688 -0.0625 8.921875 -0.0625 C 10.109375 -0.0625 11.066406 -0.347656 11.796875 -0.921875 C 12.535156 -1.503906 13.101562 -2.390625 13.5 -3.578125 C 13.5 -3.609375 13.535156 -3.625 13.609375 -3.625 C 13.710938 -3.625 13.765625 -3.601562 13.765625 -3.5625 L 13.546875 -1.171875 C 13.523438 -0.992188 13.5 -0.882812 13.46875 -0.84375 C 13.445312 -0.800781 13.390625 -0.75 13.296875 -0.6875 C 12.546875 -0.332031 11.84375 -0.0820312 11.1875 0.0625 C 10.53125 0.207031 9.773438 0.28125 8.921875 0.28125 C 7.398438 0.28125 6.039062 -0.015625 4.84375 -0.609375 C 3.65625 -1.210938 2.726562 -2.054688 2.0625 -3.140625 C 1.394531 -4.234375 1.0625 -5.476562 1.0625 -6.875 C 1.0625 -8.238281 1.398438 -9.441406 2.078125 -10.484375 C 2.765625 -11.535156 3.703125 -12.347656 4.890625 -12.921875 C 6.085938 -13.503906 7.429688 -13.796875 8.921875 -13.796875 Z M 8.921875 -13.796875 "/></g></g></g><g fill="#928a6b" fill-opacity="1"><g transform="translate(75.360797, 23.86281)"><g><path d="M 0.875 0 C 0.820312 0 0.796875 -0.0390625 0.796875 -0.125 C 0.796875 -0.21875 0.820312 -0.265625 0.875 -0.265625 C 1.257812 -0.265625 1.546875 -0.300781 1.734375 -0.375 C 1.921875 -0.457031 2.050781 -0.601562 2.125 -0.8125 C 2.195312 -1.019531 2.234375 -1.335938 2.234375 -1.765625 L 2.234375 -12.984375 C 2.234375 -13.503906 2.179688 -13.878906 2.078125 -14.109375 C 1.984375 -14.335938 1.804688 -14.453125 1.546875 -14.453125 C 1.328125 -14.453125 0.992188 -14.351562 0.546875 -14.15625 L 0.5 -14.15625 C 0.457031 -14.15625 0.425781 -14.191406 0.40625 -14.265625 C 0.382812 -14.335938 0.394531 -14.378906 0.4375 -14.390625 L 3.21875 -15.71875 C 3.238281 -15.726562 3.273438 -15.734375 3.328125 -15.734375 C 3.347656 -15.734375 3.382812 -15.710938 3.4375 -15.671875 C 3.488281 -15.640625 3.515625 -15.601562 3.515625 -15.5625 L 3.515625 -1.765625 C 3.515625 -1.335938 3.546875 -1.019531 3.609375 -0.8125 C 3.679688 -0.613281 3.8125 -0.472656 4 -0.390625 C 4.1875 -0.304688 4.472656 -0.265625 4.859375 -0.265625 C 4.898438 -0.265625 4.921875 -0.21875 4.921875 -0.125 C 4.921875 -0.0390625 4.898438 0 4.859375 0 C 4.546875 0 4.285156 -0.00390625 4.078125 -0.015625 L 2.859375 -0.046875 L 1.6875 -0.015625 C 1.488281 -0.00390625 1.21875 0 0.875 0 Z M 0.875 0 "/></g></g></g><g fill="#928a6b" fill-opacity="1"><g transform="translate(80.961114, 23.86281)"><g><path d="M 10.5625 -1.234375 C 10.625 -1.234375 10.664062 -1.203125 10.6875 -1.140625 C 10.707031 -1.078125 10.691406 -1.03125 10.640625 -1 L 8.09375 0.203125 L 8.015625 0.21875 C 7.867188 0.21875 7.726562 0.0507812 7.59375 -0.28125 C 7.46875 -0.613281 7.40625 -1.046875 7.40625 -1.578125 L 7.40625 -1.671875 C 6.832031 -1.035156 6.265625 -0.566406 5.703125 -0.265625 C 5.140625 0.0234375 4.554688 0.171875 3.953125 0.171875 C 3.222656 0.171875 2.65625 -0.0507812 2.25 -0.5 C 1.851562 -0.957031 1.65625 -1.625 1.65625 -2.5 L 1.65625 -5.8125 C 1.65625 -6.375 1.601562 -6.78125 1.5 -7.03125 C 1.394531 -7.289062 1.226562 -7.421875 1 -7.421875 C 0.789062 -7.421875 0.546875 -7.347656 0.265625 -7.203125 L 0.234375 -7.203125 C 0.179688 -7.203125 0.140625 -7.238281 0.109375 -7.3125 C 0.078125 -7.394531 0.09375 -7.445312 0.15625 -7.46875 L 2.5625 -8.546875 L 2.640625 -8.578125 C 2.691406 -8.578125 2.738281 -8.554688 2.78125 -8.515625 C 2.832031 -8.484375 2.859375 -8.445312 2.859375 -8.40625 L 2.859375 -3.21875 C 2.859375 -1.53125 3.46875 -0.6875 4.6875 -0.6875 C 5.144531 -0.6875 5.613281 -0.804688 6.09375 -1.046875 C 6.570312 -1.285156 7.007812 -1.617188 7.40625 -2.046875 L 7.40625 -5.8125 C 7.40625 -6.394531 7.359375 -6.804688 7.265625 -7.046875 C 7.171875 -7.296875 7 -7.421875 6.75 -7.421875 C 6.550781 -7.421875 6.304688 -7.347656 6.015625 -7.203125 L 5.984375 -7.203125 C 5.929688 -7.203125 5.894531 -7.238281 5.875 -7.3125 C 5.851562 -7.394531 5.867188 -7.445312 5.921875 -7.46875 L 8.328125 -8.546875 L 8.40625 -8.578125 C 8.445312 -8.578125 8.488281 -8.554688 8.53125 -8.515625 C 8.582031 -8.484375 8.609375 -8.445312 8.609375 -8.40625 L 8.609375 -2.328125 C 8.609375 -1.828125 8.664062 -1.46875 8.78125 -1.25 C 8.90625 -1.039062 9.101562 -0.9375 9.375 -0.9375 C 9.625 -0.9375 10.007812 -1.035156 10.53125 -1.234375 Z M 10.5625 -1.234375 "/></g></g></g><g fill="#928a6b" fill-opacity="1"><g transform="translate(91.662495, 23.86281)"><g><path d="M 6.765625 -8.65625 C 7.390625 -8.65625 7.96875 -8.503906 8.5 -8.203125 C 9.039062 -7.898438 9.46875 -7.445312 9.78125 -6.84375 C 10.101562 -6.25 10.265625 -5.515625 10.265625 -4.640625 C 10.265625 -3.597656 10.035156 -2.703125 9.578125 -1.953125 C 9.117188 -1.210938 8.523438 -0.65625 7.796875 -0.28125 C 7.066406 0.09375 6.296875 0.28125 5.484375 0.28125 C 4.367188 0.28125 3.390625 -0.0351562 2.546875 -0.671875 L 0.890625 0.109375 L 0.84375 0.109375 C 0.789062 0.109375 0.753906 0.078125 0.734375 0.015625 C 0.722656 -0.0351562 0.738281 -0.078125 0.78125 -0.109375 C 1.238281 -0.429688 1.5625 -0.734375 1.75 -1.015625 C 1.945312 -1.296875 2.046875 -1.703125 2.046875 -2.234375 L 2.046875 -12.953125 C 2.046875 -13.472656 1.988281 -13.847656 1.875 -14.078125 C 1.769531 -14.316406 1.585938 -14.4375 1.328125 -14.4375 C 1.117188 -14.4375 0.789062 -14.34375 0.34375 -14.15625 L 0.296875 -14.15625 C 0.253906 -14.15625 0.222656 -14.191406 0.203125 -14.265625 C 0.179688 -14.335938 0.191406 -14.378906 0.234375 -14.390625 L 2.953125 -15.71875 L 3.0625 -15.734375 C 3.09375 -15.734375 3.128906 -15.710938 3.171875 -15.671875 C 3.222656 -15.640625 3.25 -15.601562 3.25 -15.5625 L 3.25 -6.765625 C 3.800781 -7.347656 4.351562 -7.804688 4.90625 -8.140625 C 5.457031 -8.484375 6.078125 -8.65625 6.765625 -8.65625 Z M 6.15625 -0.125 C 7 -0.125 7.65625 -0.445312 8.125 -1.09375 C 8.59375 -1.75 8.828125 -2.6875 8.828125 -3.90625 C 8.828125 -5.207031 8.570312 -6.203125 8.0625 -6.890625 C 7.5625 -7.585938 6.894531 -7.9375 6.0625 -7.9375 C 5.5625 -7.9375 5.085938 -7.800781 4.640625 -7.53125 C 4.191406 -7.269531 3.726562 -6.898438 3.25 -6.421875 L 3.25 -2.859375 C 3.25 -2.222656 3.40625 -1.703125 3.71875 -1.296875 C 4.03125 -0.890625 4.410156 -0.59375 4.859375 -0.40625 C 5.304688 -0.21875 5.738281 -0.125 6.15625 -0.125 Z M 6.15625 -0.125 "/></g></g></g><g transform="matrix(1, 0, 0, 1, 45, 30)"><g clip-path="url(#4b8483d440)"><g fill="#928a6b" fill-opacity="1"><g transform="translate(0.847134, 4.209771)"><g><path d="M 1.765625 0.0625 C 1.460938 0.0625 1.195312 -0.00390625 0.96875 -0.140625 C 0.738281 -0.285156 0.554688 -0.476562 0.421875 -0.71875 C 0.296875 -0.957031 0.234375 -1.21875 0.234375 -1.5 C 0.234375 -1.832031 0.316406 -2.117188 0.484375 -2.359375 C 0.648438 -2.597656 0.863281 -2.773438 1.125 -2.890625 C 1.394531 -3.015625 1.664062 -3.078125 1.9375 -3.078125 C 2.238281 -3.078125 2.503906 -3.003906 2.734375 -2.859375 C 2.972656 -2.710938 3.15625 -2.519531 3.28125 -2.28125 C 3.40625 -2.050781 3.46875 -1.804688 3.46875 -1.546875 C 3.46875 -1.242188 3.390625 -0.96875 3.234375 -0.71875 C 3.078125 -0.476562 2.867188 -0.285156 2.609375 -0.140625 C 2.347656 -0.00390625 2.066406 0.0625 1.765625 0.0625 Z M 1.9375 -0.046875 C 2.15625 -0.046875 2.351562 -0.0976562 2.53125 -0.203125 C 2.707031 -0.304688 2.84375 -0.460938 2.9375 -0.671875 C 3.039062 -0.878906 3.09375 -1.125 3.09375 -1.40625 C 3.09375 -1.707031 3.035156 -1.972656 2.921875 -2.203125 C 2.804688 -2.441406 2.644531 -2.625 2.4375 -2.75 C 2.238281 -2.882812 2.003906 -2.953125 1.734375 -2.953125 C 1.378906 -2.953125 1.101562 -2.835938 0.90625 -2.609375 C 0.707031 -2.390625 0.609375 -2.078125 0.609375 -1.671875 C 0.609375 -1.367188 0.660156 -1.09375 0.765625 -0.84375 C 0.878906 -0.59375 1.035156 -0.394531 1.234375 -0.25 C 1.441406 -0.113281 1.675781 -0.046875 1.9375 -0.046875 Z M 1.9375 -0.046875 "/></g></g></g><g fill="#928a6b" fill-opacity="1"><g transform="translate(4.549891, 4.209771)"><g><path d="M 2.390625 -0.0625 C 2.398438 -0.0625 2.40625 -0.0507812 2.40625 -0.03125 C 2.40625 -0.0078125 2.398438 0 2.390625 0 C 2.316406 0 2.257812 0 2.21875 0 L 1.953125 -0.015625 L 1.6875 0 C 1.644531 0 1.585938 0 1.515625 0 C 1.503906 0 1.5 -0.0078125 1.5 -0.03125 C 1.5 -0.0507812 1.503906 -0.0625 1.515625 -0.0625 C 1.597656 -0.0625 1.660156 -0.0664062 1.703125 -0.078125 C 1.742188 -0.0976562 1.769531 -0.128906 1.78125 -0.171875 C 1.800781 -0.222656 1.8125 -0.296875 1.8125 -0.390625 L 1.8125 -1.171875 C 1.8125 -1.359375 1.773438 -1.5 1.703125 -1.59375 C 1.628906 -1.6875 1.519531 -1.734375 1.375 -1.734375 C 1.269531 -1.734375 1.164062 -1.703125 1.0625 -1.640625 C 0.96875 -1.585938 0.878906 -1.515625 0.796875 -1.421875 L 0.796875 -0.390625 C 0.796875 -0.296875 0.800781 -0.222656 0.8125 -0.171875 C 0.820312 -0.128906 0.847656 -0.0976562 0.890625 -0.078125 C 0.929688 -0.0664062 1 -0.0625 1.09375 -0.0625 C 1.101562 -0.0625 1.109375 -0.0507812 1.109375 -0.03125 C 1.109375 -0.0078125 1.101562 0 1.09375 0 C 1.019531 0 0.960938 0 0.921875 0 L 0.65625 -0.015625 L 0.390625 0 C 0.347656 0 0.289062 0 0.21875 0 C 0.207031 0 0.203125 -0.0078125 0.203125 -0.03125 C 0.203125 -0.0507812 0.207031 -0.0625 0.21875 -0.0625 C 0.300781 -0.0625 0.363281 -0.0664062 0.40625 -0.078125 C 0.445312 -0.0976562 0.472656 -0.128906 0.484375 -0.171875 C 0.503906 -0.222656 0.515625 -0.296875 0.515625 -0.390625 L 0.515625 -1.34375 C 0.515625 -1.457031 0.5 -1.535156 0.46875 -1.578125 C 0.445312 -1.628906 0.40625 -1.65625 0.34375 -1.65625 C 0.289062 -1.65625 0.207031 -1.628906 0.09375 -1.578125 L 0.078125 -1.578125 C 0.0664062 -1.578125 0.0546875 -1.582031 0.046875 -1.59375 C 0.046875 -1.613281 0.0507812 -1.628906 0.0625 -1.640625 L 0.625 -1.90625 L 0.65625 -1.90625 C 0.675781 -1.90625 0.703125 -1.867188 0.734375 -1.796875 C 0.773438 -1.722656 0.796875 -1.628906 0.796875 -1.515625 C 0.910156 -1.648438 1.03125 -1.75 1.15625 -1.8125 C 1.28125 -1.882812 1.40625 -1.921875 1.53125 -1.921875 C 1.707031 -1.921875 1.84375 -1.867188 1.9375 -1.765625 C 2.039062 -1.671875 2.09375 -1.53125 2.09375 -1.34375 L 2.09375 -0.390625 C 2.09375 -0.296875 2.097656 -0.222656 2.109375 -0.171875 C 2.128906 -0.128906 2.160156 -0.0976562 2.203125 -0.078125 C 2.242188 -0.0664062 2.304688 -0.0625 2.390625 -0.0625 Z M 2.390625 -0.0625 "/></g></g></g><g clip-path="url(#c91609f1e0)"><g fill="#928a6b" fill-opacity="1"><g transform="translate(7.04901, 4.209771)"><g><path d="M 0.1875 0 C 0.175781 0 0.171875 -0.0078125 0.171875 -0.03125 C 0.171875 -0.0507812 0.175781 -0.0625 0.1875 -0.0625 C 0.28125 -0.0625 0.347656 -0.0664062 0.390625 -0.078125 C 0.429688 -0.0976562 0.457031 -0.128906 0.46875 -0.171875 C 0.488281 -0.222656 0.5 -0.296875 0.5 -0.390625 L 0.5 -2.890625 C 0.5 -3.003906 0.488281 -3.085938 0.46875 -3.140625 C 0.445312 -3.191406 0.40625 -3.21875 0.34375 -3.21875 C 0.289062 -3.21875 0.21875 -3.191406 0.125 -3.140625 L 0.109375 -3.140625 C 0.0976562 -3.140625 0.0859375 -3.148438 0.078125 -3.171875 C 0.078125 -3.191406 0.0820312 -3.203125 0.09375 -3.203125 L 0.71875 -3.5 C 0.71875 -3.5 0.722656 -3.5 0.734375 -3.5 C 0.742188 -3.5 0.753906 -3.492188 0.765625 -3.484375 C 0.773438 -3.472656 0.78125 -3.46875 0.78125 -3.46875 L 0.78125 -0.390625 C 0.78125 -0.296875 0.785156 -0.222656 0.796875 -0.171875 C 0.816406 -0.128906 0.847656 -0.0976562 0.890625 -0.078125 C 0.929688 -0.0664062 0.992188 -0.0625 1.078125 -0.0625 C 1.085938 -0.0625 1.09375 -0.0507812 1.09375 -0.03125 C 1.09375 -0.0078125 1.085938 0 1.078125 0 C 1.003906 0 0.945312 0 0.90625 0 L 0.640625 -0.015625 L 0.375 0 C 0.332031 0 0.269531 0 0.1875 0 Z M 0.1875 0 "/></g></g></g></g><g fill="#928a6b" fill-opacity="1"><g transform="translate(8.296153, 4.209771)"><g><path d="M 0.65625 -2.46875 C 0.59375 -2.46875 0.539062 -2.484375 0.5 -2.515625 C 0.46875 -2.554688 0.453125 -2.609375 0.453125 -2.671875 C 0.453125 -2.734375 0.46875 -2.78125 0.5 -2.8125 C 0.539062 -2.851562 0.59375 -2.875 0.65625 -2.875 C 0.726562 -2.875 0.78125 -2.851562 0.8125 -2.8125 C 0.84375 -2.78125 0.859375 -2.734375 0.859375 -2.671875 C 0.859375 -2.609375 0.84375 -2.554688 0.8125 -2.515625 C 0.78125 -2.484375 0.726562 -2.46875 0.65625 -2.46875 Z M 0.25 0 C 0.25 0 0.25 -0.0078125 0.25 -0.03125 C 0.25 -0.0507812 0.25 -0.0625 0.25 -0.0625 C 0.34375 -0.0625 0.410156 -0.0664062 0.453125 -0.078125 C 0.492188 -0.0976562 0.519531 -0.128906 0.53125 -0.171875 C 0.550781 -0.222656 0.5625 -0.296875 0.5625 -0.390625 L 0.5625 -1.296875 C 0.5625 -1.410156 0.550781 -1.492188 0.53125 -1.546875 C 0.507812 -1.597656 0.46875 -1.625 0.40625 -1.625 C 0.34375 -1.625 0.269531 -1.597656 0.1875 -1.546875 C 0.175781 -1.546875 0.164062 -1.554688 0.15625 -1.578125 C 0.144531 -1.597656 0.144531 -1.609375 0.15625 -1.609375 L 0.78125 -1.90625 L 0.8125 -1.90625 C 0.8125 -1.90625 0.816406 -1.898438 0.828125 -1.890625 C 0.835938 -1.890625 0.84375 -1.882812 0.84375 -1.875 C 0.84375 -1.84375 0.835938 -1.773438 0.828125 -1.671875 C 0.828125 -1.566406 0.828125 -1.441406 0.828125 -1.296875 L 0.828125 -0.390625 C 0.828125 -0.296875 0.835938 -0.222656 0.859375 -0.171875 C 0.878906 -0.128906 0.910156 -0.0976562 0.953125 -0.078125 C 0.992188 -0.0664062 1.054688 -0.0625 1.140625 -0.0625 C 1.148438 -0.0625 1.15625 -0.0507812 1.15625 -0.03125 C 1.15625 -0.0078125 1.148438 0 1.140625 0 C 1.066406 0 1.003906 0 0.953125 0 L 0.703125 -0.015625 L 0.4375 0 C 0.394531 0 0.332031 0 0.25 0 Z M 0.25 0 "/></g></g></g><g fill="#928a6b" fill-opacity="1"><g transform="translate(9.615802, 4.209771)"><g><path d="M 2.390625 -0.0625 C 2.398438 -0.0625 2.40625 -0.0507812 2.40625 -0.03125 C 2.40625 -0.0078125 2.398438 0 2.390625 0 C 2.316406 0 2.257812 0 2.21875 0 L 1.953125 -0.015625 L 1.6875 0 C 1.644531 0 1.585938 0 1.515625 0 C 1.503906 0 1.5 -0.0078125 1.5 -0.03125 C 1.5 -0.0507812 1.503906 -0.0625 1.515625 -0.0625 C 1.597656 -0.0625 1.660156 -0.0664062 1.703125 -0.078125 C 1.742188 -0.0976562 1.769531 -0.128906 1.78125 -0.171875 C 1.800781 -0.222656 1.8125 -0.296875 1.8125 -0.390625 L 1.8125 -1.171875 C 1.8125 -1.359375 1.773438 -1.5 1.703125 -1.59375 C 1.628906 -1.6875 1.519531 -1.734375 1.375 -1.734375 C 1.269531 -1.734375 1.164062 -1.703125 1.0625 -1.640625 C 0.96875 -1.585938 0.878906 -1.515625 0.796875 -1.421875 L 0.796875 -0.390625 C 0.796875 -0.296875 0.800781 -0.222656 0.8125 -0.171875 C 0.820312 -0.128906 0.847656 -0.0976562 0.890625 -0.078125 C 0.929688 -0.0664062 1 -0.0625 1.09375 -0.0625 C 1.101562 -0.0625 1.109375 -0.0507812 1.109375 -0.03125 C 1.109375 -0.0078125 1.101562 0 1.09375 0 C 1.019531 0 0.960938 0 0.921875 0 L 0.65625 -0.015625 L 0.390625 0 C 0.347656 0 0.289062 0 0.21875 0 C 0.207031 0 0.203125 -0.0078125 0.203125 -0.03125 C 0.203125 -0.0507812 0.207031 -0.0625 0.21875 -0.0625 C 0.300781 -0.0625 0.363281 -0.0664062 0.40625 -0.078125 C 0.445312 -0.0976562 0.472656 -0.128906 0.484375 -0.171875 C 0.503906 -0.222656 0.515625 -0.296875 0.515625 -0.390625 L 0.515625 -1.34375 C 0.515625 -1.457031 0.5 -1.535156 0.46875 -1.578125 C 0.445312 -1.628906 0.40625 -1.65625 0.34375 -1.65625 C 0.289062 -1.65625 0.207031 -1.628906 0.09375 -1.578125 L 0.078125 -1.578125 C 0.0664062 -1.578125 0.0546875 -1.582031 0.046875 -1.59375 C 0.046875 -1.613281 0.0507812 -1.628906 0.0625 -1.640625 L 0.625 -1.90625 L 0.65625 -1.90625 C 0.675781 -1.90625 0.703125 -1.867188 0.734375 -1.796875 C 0.773438 -1.722656 0.796875 -1.628906 0.796875 -1.515625 C 0.910156 -1.648438 1.03125 -1.75 1.15625 -1.8125 C 1.28125 -1.882812 1.40625 -1.921875 1.53125 -1.921875 C 1.707031 -1.921875 1.84375 -1.867188 1.9375 -1.765625 C 2.039062 -1.671875 2.09375 -1.53125 2.09375 -1.34375 L 2.09375 -0.390625 C 2.09375 -0.296875 2.097656 -0.222656 2.109375 -0.171875 C 2.128906 -0.128906 2.160156 -0.0976562 2.203125 -0.078125 C 2.242188 -0.0664062 2.304688 -0.0625 2.390625 -0.0625 Z M 2.390625 -0.0625 "/></g></g></g><g fill="#928a6b" fill-opacity="1"><g transform="translate(12.114921, 4.209771)"><g><path d="M 1.734375 -0.265625 C 1.742188 -0.265625 1.75 -0.257812 1.75 -0.25 C 1.757812 -0.238281 1.765625 -0.226562 1.765625 -0.21875 C 1.546875 -0.03125 1.3125 0.0625 1.0625 0.0625 C 0.875 0.0625 0.710938 0.0195312 0.578125 -0.0625 C 0.441406 -0.15625 0.335938 -0.269531 0.265625 -0.40625 C 0.203125 -0.550781 0.171875 -0.707031 0.171875 -0.875 C 0.171875 -1.0625 0.210938 -1.234375 0.296875 -1.390625 C 0.390625 -1.546875 0.515625 -1.671875 0.671875 -1.765625 C 0.828125 -1.859375 1 -1.90625 1.1875 -1.90625 C 1.375 -1.90625 1.515625 -1.859375 1.609375 -1.765625 C 1.703125 -1.671875 1.75 -1.535156 1.75 -1.359375 C 1.75 -1.316406 1.742188 -1.285156 1.734375 -1.265625 C 1.734375 -1.242188 1.722656 -1.234375 1.703125 -1.234375 L 0.5 -1.21875 C 0.5 -1.15625 0.5 -1.097656 0.5 -1.046875 C 0.5 -0.765625 0.5625 -0.535156 0.6875 -0.359375 C 0.820312 -0.191406 1.007812 -0.109375 1.25 -0.109375 C 1.34375 -0.109375 1.421875 -0.117188 1.484375 -0.140625 C 1.554688 -0.171875 1.640625 -0.210938 1.734375 -0.265625 Z M 1.03125 -1.8125 C 0.894531 -1.8125 0.78125 -1.765625 0.6875 -1.671875 C 0.601562 -1.578125 0.546875 -1.453125 0.515625 -1.296875 L 1.421875 -1.3125 C 1.421875 -1.46875 1.382812 -1.585938 1.3125 -1.671875 C 1.25 -1.765625 1.15625 -1.8125 1.03125 -1.8125 Z M 1.03125 -1.8125 "/></g></g></g><g fill="#928a6b" fill-opacity="1"><g transform="translate(14.08715, 4.209771)"><g/></g></g><g fill="#928a6b" fill-opacity="1"><g transform="translate(15.218277, 4.209771)"><g><path d="M 0.890625 -0.40625 C 0.890625 -0.3125 0.898438 -0.242188 0.921875 -0.203125 C 0.941406 -0.160156 0.976562 -0.128906 1.03125 -0.109375 C 1.082031 -0.0976562 1.164062 -0.09375 1.28125 -0.09375 L 1.8125 -0.09375 C 1.988281 -0.09375 2.128906 -0.148438 2.234375 -0.265625 C 2.347656 -0.378906 2.425781 -0.535156 2.46875 -0.734375 C 2.46875 -0.742188 2.472656 -0.75 2.484375 -0.75 C 2.503906 -0.75 2.515625 -0.742188 2.515625 -0.734375 C 2.484375 -0.460938 2.46875 -0.242188 2.46875 -0.078125 C 2.46875 -0.046875 2.460938 -0.0234375 2.453125 -0.015625 C 2.441406 -0.00390625 2.425781 0 2.40625 0 L 0.171875 0 C 0.160156 0 0.15625 -0.0078125 0.15625 -0.03125 C 0.15625 -0.0507812 0.160156 -0.0625 0.171875 -0.0625 C 0.296875 -0.0625 0.382812 -0.0664062 0.4375 -0.078125 C 0.488281 -0.0976562 0.523438 -0.128906 0.546875 -0.171875 C 0.566406 -0.222656 0.578125 -0.296875 0.578125 -0.390625 L 0.578125 -2.625 C 0.578125 -2.71875 0.566406 -2.785156 0.546875 -2.828125 C 0.523438 -2.878906 0.488281 -2.910156 0.4375 -2.921875 C 0.382812 -2.941406 0.296875 -2.953125 0.171875 -2.953125 C 0.160156 -2.953125 0.15625 -2.960938 0.15625 -2.984375 C 0.15625 -3.003906 0.160156 -3.015625 0.171875 -3.015625 L 0.40625 -3.015625 C 0.539062 -3.003906 0.648438 -3 0.734375 -3 C 0.828125 -3 0.941406 -3.003906 1.078125 -3.015625 L 1.296875 -3.015625 C 1.304688 -3.015625 1.3125 -3.003906 1.3125 -2.984375 C 1.3125 -2.960938 1.304688 -2.953125 1.296875 -2.953125 C 1.179688 -2.953125 1.09375 -2.941406 1.03125 -2.921875 C 0.976562 -2.910156 0.941406 -2.878906 0.921875 -2.828125 C 0.898438 -2.785156 0.890625 -2.71875 0.890625 -2.625 Z M 0.890625 -0.40625 "/></g></g></g><g fill="#928a6b" fill-opacity="1"><g transform="translate(17.794738, 4.209771)"><g><path d="M 0.65625 -2.46875 C 0.59375 -2.46875 0.539062 -2.484375 0.5 -2.515625 C 0.46875 -2.554688 0.453125 -2.609375 0.453125 -2.671875 C 0.453125 -2.734375 0.46875 -2.78125 0.5 -2.8125 C 0.539062 -2.851562 0.59375 -2.875 0.65625 -2.875 C 0.726562 -2.875 0.78125 -2.851562 0.8125 -2.8125 C 0.84375 -2.78125 0.859375 -2.734375 0.859375 -2.671875 C 0.859375 -2.609375 0.84375 -2.554688 0.8125 -2.515625 C 0.78125 -2.484375 0.726562 -2.46875 0.65625 -2.46875 Z M 0.25 0 C 0.25 0 0.25 -0.0078125 0.25 -0.03125 C 0.25 -0.0507812 0.25 -0.0625 0.25 -0.0625 C 0.34375 -0.0625 0.410156 -0.0664062 0.453125 -0.078125 C 0.492188 -0.0976562 0.519531 -0.128906 0.53125 -0.171875 C 0.550781 -0.222656 0.5625 -0.296875 0.5625 -0.390625 L 0.5625 -1.296875 C 0.5625 -1.410156 0.550781 -1.492188 0.53125 -1.546875 C 0.507812 -1.597656 0.46875 -1.625 0.40625 -1.625 C 0.34375 -1.625 0.269531 -1.597656 0.1875 -1.546875 C 0.175781 -1.546875 0.164062 -1.554688 0.15625 -1.578125 C 0.144531 -1.597656 0.144531 -1.609375 0.15625 -1.609375 L 0.78125 -1.90625 L 0.8125 -1.90625 C 0.8125 -1.90625 0.816406 -1.898438 0.828125 -1.890625 C 0.835938 -1.890625 0.84375 -1.882812 0.84375 -1.875 C 0.84375 -1.84375 0.835938 -1.773438 0.828125 -1.671875 C 0.828125 -1.566406 0.828125 -1.441406 0.828125 -1.296875 L 0.828125 -0.390625 C 0.828125 -0.296875 0.835938 -0.222656 0.859375 -0.171875 C 0.878906 -0.128906 0.910156 -0.0976562 0.953125 -0.078125 C 0.992188 -0.0664062 1.054688 -0.0625 1.140625 -0.0625 C 1.148438 -0.0625 1.15625 -0.0507812 1.15625 -0.03125 C 1.15625 -0.0078125 1.148438 0 1.140625 0 C 1.066406 0 1.003906 0 0.953125 0 L 0.703125 -0.015625 L 0.4375 0 C 0.394531 0 0.332031 0 0.25 0 Z M 0.25 0 "/></g></g></g><g clip-path="url(#7c139a0ce7)"><g fill="#928a6b" fill-opacity="1"><g transform="translate(19.114386, 4.209771)"><g><path d="M 1.5 -1.921875 C 1.644531 -1.921875 1.773438 -1.882812 1.890625 -1.8125 C 2.015625 -1.75 2.109375 -1.648438 2.171875 -1.515625 C 2.242188 -1.390625 2.28125 -1.226562 2.28125 -1.03125 C 2.28125 -0.800781 2.226562 -0.601562 2.125 -0.4375 C 2.03125 -0.269531 1.898438 -0.144531 1.734375 -0.0625 C 1.566406 0.0195312 1.394531 0.0625 1.21875 0.0625 C 0.96875 0.0625 0.75 -0.0078125 0.5625 -0.15625 L 0.203125 0.03125 L 0.1875 0.03125 C 0.175781 0.03125 0.164062 0.0195312 0.15625 0 C 0.15625 -0.0078125 0.160156 -0.0195312 0.171875 -0.03125 C 0.273438 -0.09375 0.347656 -0.15625 0.390625 -0.21875 C 0.429688 -0.28125 0.453125 -0.375 0.453125 -0.5 L 0.453125 -2.875 C 0.453125 -3 0.4375 -3.082031 0.40625 -3.125 C 0.382812 -3.175781 0.347656 -3.203125 0.296875 -3.203125 C 0.253906 -3.203125 0.179688 -3.179688 0.078125 -3.140625 L 0.0625 -3.140625 C 0.0507812 -3.140625 0.0390625 -3.148438 0.03125 -3.171875 C 0.03125 -3.191406 0.0351562 -3.203125 0.046875 -3.203125 L 0.65625 -3.5 L 0.6875 -3.5 C 0.6875 -3.5 0.691406 -3.492188 0.703125 -3.484375 C 0.710938 -3.472656 0.71875 -3.46875 0.71875 -3.46875 L 0.71875 -1.5 C 0.84375 -1.632812 0.96875 -1.738281 1.09375 -1.8125 C 1.21875 -1.882812 1.351562 -1.921875 1.5 -1.921875 Z M 1.375 -0.03125 C 1.5625 -0.03125 1.707031 -0.101562 1.8125 -0.25 C 1.914062 -0.394531 1.96875 -0.601562 1.96875 -0.875 C 1.96875 -1.15625 1.910156 -1.375 1.796875 -1.53125 C 1.679688 -1.6875 1.53125 -1.765625 1.34375 -1.765625 C 1.238281 -1.765625 1.132812 -1.734375 1.03125 -1.671875 C 0.9375 -1.617188 0.832031 -1.535156 0.71875 -1.421875 L 0.71875 -0.640625 C 0.71875 -0.492188 0.753906 -0.375 0.828125 -0.28125 C 0.898438 -0.195312 0.984375 -0.132812 1.078125 -0.09375 C 1.179688 -0.0507812 1.28125 -0.03125 1.375 -0.03125 Z M 1.375 -0.03125 "/></g></g></g></g><g fill="#928a6b" fill-opacity="1"><g transform="translate(21.579668, 4.209771)"><g><path d="M 1.328125 -1.90625 C 1.398438 -1.90625 1.46875 -1.882812 1.53125 -1.84375 C 1.59375 -1.8125 1.625 -1.765625 1.625 -1.703125 C 1.625 -1.660156 1.609375 -1.625 1.578125 -1.59375 C 1.554688 -1.570312 1.519531 -1.5625 1.46875 -1.5625 C 1.4375 -1.5625 1.410156 -1.566406 1.390625 -1.578125 C 1.367188 -1.585938 1.34375 -1.601562 1.3125 -1.625 C 1.289062 -1.65625 1.265625 -1.675781 1.234375 -1.6875 C 1.210938 -1.695312 1.179688 -1.703125 1.140625 -1.703125 C 1.097656 -1.703125 1.050781 -1.679688 1 -1.640625 C 0.957031 -1.609375 0.890625 -1.535156 0.796875 -1.421875 L 0.796875 -0.390625 C 0.796875 -0.296875 0.804688 -0.222656 0.828125 -0.171875 C 0.847656 -0.128906 0.890625 -0.0976562 0.953125 -0.078125 C 1.023438 -0.0664062 1.128906 -0.0625 1.265625 -0.0625 C 1.273438 -0.0625 1.28125 -0.0507812 1.28125 -0.03125 C 1.28125 -0.0078125 1.273438 0 1.265625 0 C 1.160156 0 1.078125 0 1.015625 0 L 0.65625 -0.015625 L 0.390625 0 C 0.347656 0 0.289062 0 0.21875 0 C 0.207031 0 0.203125 -0.0078125 0.203125 -0.03125 C 0.203125 -0.0507812 0.207031 -0.0625 0.21875 -0.0625 C 0.300781 -0.0625 0.363281 -0.0664062 0.40625 -0.078125 C 0.445312 -0.0976562 0.472656 -0.128906 0.484375 -0.171875 C 0.503906 -0.222656 0.515625 -0.296875 0.515625 -0.390625 L 0.515625 -1.34375 C 0.515625 -1.457031 0.5 -1.535156 0.46875 -1.578125 C 0.445312 -1.628906 0.40625 -1.65625 0.34375 -1.65625 C 0.289062 -1.65625 0.207031 -1.628906 0.09375 -1.578125 L 0.078125 -1.578125 C 0.0664062 -1.578125 0.0546875 -1.582031 0.046875 -1.59375 C 0.046875 -1.613281 0.0507812 -1.628906 0.0625 -1.640625 L 0.625 -1.90625 L 0.65625 -1.90625 C 0.675781 -1.90625 0.703125 -1.867188 0.734375 -1.796875 C 0.773438 -1.722656 0.796875 -1.628906 0.796875 -1.515625 L 0.796875 -1.5 C 0.921875 -1.65625 1.019531 -1.757812 1.09375 -1.8125 C 1.175781 -1.875 1.253906 -1.90625 1.328125 -1.90625 Z M 1.328125 -1.90625 "/></g></g></g><g fill="#928a6b" fill-opacity="1"><g transform="translate(23.26186, 4.209771)"><g><path d="M 2 -0.265625 C 2.007812 -0.265625 2.015625 -0.253906 2.015625 -0.234375 C 2.023438 -0.222656 2.023438 -0.210938 2.015625 -0.203125 L 1.515625 0.03125 C 1.503906 0.03125 1.492188 0.03125 1.484375 0.03125 C 1.441406 0.03125 1.398438 0.00390625 1.359375 -0.046875 C 1.328125 -0.0976562 1.304688 -0.175781 1.296875 -0.28125 L 1.046875 -0.109375 C 0.972656 -0.0546875 0.90625 -0.0195312 0.84375 0 C 0.78125 0.0195312 0.710938 0.03125 0.640625 0.03125 C 0.523438 0.03125 0.429688 0 0.359375 -0.0625 C 0.296875 -0.125 0.265625 -0.203125 0.265625 -0.296875 C 0.265625 -0.390625 0.300781 -0.472656 0.375 -0.546875 C 0.457031 -0.617188 0.585938 -0.6875 0.765625 -0.75 L 1.296875 -0.953125 L 1.296875 -1.28125 C 1.296875 -1.632812 1.195312 -1.8125 1 -1.8125 C 0.882812 -1.8125 0.796875 -1.773438 0.734375 -1.703125 C 0.679688 -1.640625 0.644531 -1.5625 0.625 -1.46875 C 0.625 -1.40625 0.609375 -1.351562 0.578125 -1.3125 C 0.554688 -1.28125 0.515625 -1.265625 0.453125 -1.265625 C 0.398438 -1.265625 0.359375 -1.28125 0.328125 -1.3125 C 0.304688 -1.34375 0.296875 -1.375 0.296875 -1.40625 C 0.296875 -1.488281 0.34375 -1.566406 0.4375 -1.640625 C 0.539062 -1.710938 0.660156 -1.773438 0.796875 -1.828125 C 0.929688 -1.878906 1.054688 -1.90625 1.171875 -1.90625 C 1.296875 -1.90625 1.390625 -1.863281 1.453125 -1.78125 C 1.523438 -1.695312 1.5625 -1.578125 1.5625 -1.421875 L 1.5625 -0.515625 C 1.5625 -0.410156 1.578125 -0.332031 1.609375 -0.28125 C 1.640625 -0.226562 1.6875 -0.203125 1.75 -0.203125 C 1.8125 -0.203125 1.894531 -0.222656 2 -0.265625 Z M 1.296875 -0.34375 L 1.296875 -0.890625 L 0.84375 -0.703125 C 0.757812 -0.671875 0.695312 -0.628906 0.65625 -0.578125 C 0.613281 -0.535156 0.59375 -0.484375 0.59375 -0.421875 C 0.59375 -0.335938 0.617188 -0.269531 0.671875 -0.21875 C 0.722656 -0.164062 0.785156 -0.140625 0.859375 -0.140625 C 0.921875 -0.140625 1 -0.164062 1.09375 -0.21875 Z M 1.296875 -0.34375 "/></g></g></g><g fill="#928a6b" fill-opacity="1"><g transform="translate(25.287256, 4.209771)"><g><path d="M 1.328125 -1.90625 C 1.398438 -1.90625 1.46875 -1.882812 1.53125 -1.84375 C 1.59375 -1.8125 1.625 -1.765625 1.625 -1.703125 C 1.625 -1.660156 1.609375 -1.625 1.578125 -1.59375 C 1.554688 -1.570312 1.519531 -1.5625 1.46875 -1.5625 C 1.4375 -1.5625 1.410156 -1.566406 1.390625 -1.578125 C 1.367188 -1.585938 1.34375 -1.601562 1.3125 -1.625 C 1.289062 -1.65625 1.265625 -1.675781 1.234375 -1.6875 C 1.210938 -1.695312 1.179688 -1.703125 1.140625 -1.703125 C 1.097656 -1.703125 1.050781 -1.679688 1 -1.640625 C 0.957031 -1.609375 0.890625 -1.535156 0.796875 -1.421875 L 0.796875 -0.390625 C 0.796875 -0.296875 0.804688 -0.222656 0.828125 -0.171875 C 0.847656 -0.128906 0.890625 -0.0976562 0.953125 -0.078125 C 1.023438 -0.0664062 1.128906 -0.0625 1.265625 -0.0625 C 1.273438 -0.0625 1.28125 -0.0507812 1.28125 -0.03125 C 1.28125 -0.0078125 1.273438 0 1.265625 0 C 1.160156 0 1.078125 0 1.015625 0 L 0.65625 -0.015625 L 0.390625 0 C 0.347656 0 0.289062 0 0.21875 0 C 0.207031 0 0.203125 -0.0078125 0.203125 -0.03125 C 0.203125 -0.0507812 0.207031 -0.0625 0.21875 -0.0625 C 0.300781 -0.0625 0.363281 -0.0664062 0.40625 -0.078125 C 0.445312 -0.0976562 0.472656 -0.128906 0.484375 -0.171875 C 0.503906 -0.222656 0.515625 -0.296875 0.515625 -0.390625 L 0.515625 -1.34375 C 0.515625 -1.457031 0.5 -1.535156 0.46875 -1.578125 C 0.445312 -1.628906 0.40625 -1.65625 0.34375 -1.65625 C 0.289062 -1.65625 0.207031 -1.628906 0.09375 -1.578125 L 0.078125 -1.578125 C 0.0664062 -1.578125 0.0546875 -1.582031 0.046875 -1.59375 C 0.046875 -1.613281 0.0507812 -1.628906 0.0625 -1.640625 L 0.625 -1.90625 L 0.65625 -1.90625 C 0.675781 -1.90625 0.703125 -1.867188 0.734375 -1.796875 C 0.773438 -1.722656 0.796875 -1.628906 0.796875 -1.515625 L 0.796875 -1.5 C 0.921875 -1.65625 1.019531 -1.757812 1.09375 -1.8125 C 1.175781 -1.875 1.253906 -1.90625 1.328125 -1.90625 Z M 1.328125 -1.90625 "/></g></g></g><g fill="#928a6b" fill-opacity="1"><g transform="translate(27.04679, 4.209771)"><g><path d="M 2.078125 -1.859375 C 2.085938 -1.859375 2.09375 -1.847656 2.09375 -1.828125 C 2.09375 -1.816406 2.085938 -1.8125 2.078125 -1.8125 C 1.992188 -1.8125 1.921875 -1.78125 1.859375 -1.71875 C 1.804688 -1.65625 1.753906 -1.5625 1.703125 -1.4375 L 1.125 0.140625 C 1 0.453125 0.882812 0.691406 0.78125 0.859375 C 0.675781 1.035156 0.566406 1.160156 0.453125 1.234375 C 0.347656 1.316406 0.222656 1.359375 0.078125 1.359375 C 0.00390625 1.359375 -0.0507812 1.34375 -0.09375 1.3125 C -0.144531 1.28125 -0.171875 1.234375 -0.171875 1.171875 C -0.171875 1.117188 -0.15625 1.082031 -0.125 1.0625 C -0.09375 1.039062 -0.0546875 1.03125 -0.015625 1.03125 C 0.0234375 1.03125 0.0546875 1.03125 0.078125 1.03125 C 0.109375 1.039062 0.140625 1.0625 0.171875 1.09375 C 0.179688 1.09375 0.203125 1.097656 0.234375 1.109375 C 0.265625 1.128906 0.300781 1.140625 0.34375 1.140625 C 0.425781 1.140625 0.5 1.101562 0.5625 1.03125 C 0.632812 0.96875 0.707031 0.851562 0.78125 0.6875 C 0.863281 0.53125 0.957031 0.3125 1.0625 0.03125 L 0.328125 -1.46875 C 0.253906 -1.601562 0.195312 -1.691406 0.15625 -1.734375 C 0.125 -1.785156 0.078125 -1.8125 0.015625 -1.8125 C 0.00390625 -1.8125 0 -1.816406 0 -1.828125 C 0 -1.847656 0.00390625 -1.859375 0.015625 -1.859375 L 0.171875 -1.859375 C 0.210938 -1.859375 0.269531 -1.859375 0.34375 -1.859375 L 0.640625 -1.859375 C 0.691406 -1.859375 0.753906 -1.859375 0.828125 -1.859375 C 0.835938 -1.859375 0.84375 -1.847656 0.84375 -1.828125 C 0.84375 -1.816406 0.835938 -1.8125 0.828125 -1.8125 C 0.648438 -1.8125 0.5625 -1.769531 0.5625 -1.6875 C 0.5625 -1.675781 0.566406 -1.65625 0.578125 -1.625 L 1.21875 -0.3125 L 1.609375 -1.421875 C 1.628906 -1.492188 1.640625 -1.554688 1.640625 -1.609375 C 1.640625 -1.679688 1.609375 -1.734375 1.546875 -1.765625 C 1.492188 -1.796875 1.398438 -1.8125 1.265625 -1.8125 C 1.265625 -1.8125 1.265625 -1.816406 1.265625 -1.828125 C 1.265625 -1.847656 1.265625 -1.859375 1.265625 -1.859375 C 1.359375 -1.859375 1.425781 -1.859375 1.46875 -1.859375 L 1.9375 -1.859375 C 1.96875 -1.859375 2.015625 -1.859375 2.078125 -1.859375 Z M 2.078125 -1.859375 "/></g></g></g></g></g><g clip-path="url(#204f07afc9)"><g clip-path="url(#381f35bc2b)"><g transform="matrix(1, 0, 0, 1, 83, 33)"><g clip-path="url(#29ef9173cd)"><g clip-path="url(#44fd7c0604)"><g clip-path="url(#7b09b1e3b7)"><path fill="#7f856f" d="M 0.820312 0.660156 L 2.003906 0.660156 L 2.003906 1.84375 L 0.820312 1.84375 Z M 0.820312 0.660156 " fill-opacity="1" fill-rule="nonzero"/></g></g></g></g></g></g></svg>